{"glyphs":{":":{"x_min":0,"x_max":240,"ha":240,"o":"m 87 425 l 153 425 l 153 510 l 87 510 z m 87 0 l 153 0 l 153 85 l 87 85 z"},"$":{"x_min":0,"x_max":632,"ha":632,"o":"m 297 -98 l 345 -98 l 345 0 b 470 4 559 79 559 185 b 559 283 495 340 343 372 l 343 653 b 401 646 452 623 505 577 l 538 616 b 478 664 422 691 345 698 l 345 758 l 297 758 l 297 700 b 175 697 87 620 87 519 b 87 419 149 364 299 331 l 299 46 b 217 54 155 88 93 147 l 60 108 b 132 44 206 9 297 1 z m 508 181 b 508 105 443 47 343 45 l 343 321 b 475 291 508 249 508 181 z m 138 523 b 138 595 202 653 299 655 l 299 382 b 168 414 138 456 138 523 z"},"?":{"x_min":0,"x_max":534,"ha":534,"o":"m 229 183 l 261 183 l 270 308 b 386 322 482 388 482 512 l 482 514 b 482 621 397 709 265 709 b 159 709 91 661 34 590 l 70 560 b 122 624 183 663 263 663 b 365 663 429 594 429 512 l 429 510 b 429 414 353 353 221 350 l 216 345 z m 212 0 l 278 0 l 278 85 l 212 85 z"},"<":{"x_min":0,"x_max":620,"ha":620,"o":"m 527 91 l 527 145 l 124 353 l 527 559 l 527 613 l 63 372 l 63 332 z"},"'":{"x_min":0,"x_max":230,"ha":230,"o":"m 68 446 l 97 446 l 168 695 l 168 700 l 103 700 z"},"=":{"x_min":0,"x_max":620,"ha":620,"o":"m 83 439 l 537 439 l 537 490 l 83 490 z m 83 214 l 537 214 l 537 265 l 83 265 z"},"a":{"x_min":0,"x_max":574,"ha":574,"o":"m 248 -12 b 345 -12 408 36 443 85 l 443 0 l 491 0 l 491 318 b 491 381 473 428 439 462 b 402 499 347 518 278 518 b 208 518 153 500 97 474 l 115 431 b 162 455 213 472 275 472 b 380 472 443 419 443 316 l 443 294 b 394 307 345 316 274 316 b 142 316 51 256 51 150 l 51 148 b 51 42 153 -12 248 -12 z m 251 34 b 173 34 103 77 103 151 l 103 153 b 103 224 163 272 271 272 b 344 272 401 260 444 249 l 444 191 b 444 98 355 34 251 34 z"},"L":{"x_min":0,"x_max":619,"ha":619,"o":"m 104 0 l 567 0 l 567 48 l 156 48 l 156 700 l 104 700 z"},"3":{"x_min":0,"x_max":610,"ha":610,"o":"m 311 -12 b 432 -12 539 70 539 192 l 539 194 b 539 322 424 384 291 392 l 528 663 l 528 700 l 90 700 l 90 651 l 457 651 l 216 373 l 229 344 l 267 344 b 393 344 485 290 485 192 l 485 190 b 485 98 406 35 312 35 b 220 35 150 76 94 147 l 54 114 b 111 40 197 -12 311 -12 z"},";":{"x_min":0,"x_max":240,"ha":240,"o":"m 87 425 l 153 425 l 153 510 l 87 510 z m 70 -107 b 130 -84 153 -51 153 11 l 153 85 l 87 85 l 87 0 l 114 0 b 117 -38 101 -60 58 -82 z"},"J":{"x_min":0,"x_max":549,"ha":549,"o":"m 249 -10 b 305 -10 355 9 392 46 b 431 85 456 147 456 228 l 456 700 l 404 700 l 404 224 b 404 102 338 37 252 37 b 170 37 123 75 80 148 l 37 121 b 80 44 145 -10 249 -10 z"},"V":{"x_min":0,"x_max":750,"ha":750,"o":"m 352 -5 l 398 -5 l 706 700 l 651 700 l 376 56 l 102 700 l 44 700 z"},"\"":{"x_min":0,"x_max":410,"ha":410,"o":"m 248 446 l 277 446 l 348 695 l 348 700 l 283 700 z m 68 446 l 97 446 l 168 695 l 168 700 l 103 700 z"},"7":{"x_min":0,"x_max":587,"ha":587,"o":"m 156 0 l 213 0 l 532 662 l 532 700 l 68 700 l 68 650 l 474 650 z"},"S":{"x_min":0,"x_max":640,"ha":640,"o":"m 341 -10 b 476 -10 573 68 573 181 l 573 183 b 573 285 505 343 343 376 b 177 410 139 455 139 529 l 139 531 b 139 604 207 663 310 663 b 387 663 453 641 519 584 l 552 625 b 481 682 414 710 312 710 b 182 710 87 630 87 526 l 87 524 b 87 418 155 361 323 327 b 482 295 521 252 521 178 l 521 176 b 521 96 449 37 344 37 b 241 37 170 70 93 141 l 59 102 b 143 27 229 -10 341 -10 z"},"}":{"x_min":0,"x_max":480,"ha":480,"o":"m 64 -141 b 243 -107 275 -42 275 62 l 275 141 b 275 219 301 268 395 268 l 421 268 l 421 306 l 395 306 b 301 306 275 355 275 433 l 275 512 b 275 616 243 681 64 715 l 57 683 b 210 644 226 607 226 506 l 226 431 b 226 342 263 309 330 287 b 267 268 226 232 226 143 l 226 68 b 226 -33 210 -70 57 -109 z"},"Z":{"x_min":0,"x_max":688,"ha":688,"o":"m 68 0 l 621 0 l 621 47 l 142 47 l 621 671 l 621 700 l 85 700 l 85 653 l 547 653 l 68 29 z"},"x":{"x_min":0,"x_max":570,"ha":570,"o":"m 464 0 l 525 0 l 316 261 l 517 510 l 458 510 l 285 294 l 114 510 l 53 510 l 253 260 l 45 0 l 104 0 l 284 227 z"},")":{"x_min":0,"x_max":430,"ha":430,"o":"m 82 -141 b 258 -41 359 106 359 287 b 359 468 258 615 82 715 l 61 682 b 219 585 307 454 307 287 b 307 120 219 -11 61 -108 z"},"&":{"x_min":0,"x_max":696,"ha":696,"o":"m 622 -14 l 663 20 l 534 153 b 572 204 606 267 638 339 l 591 358 b 564 294 534 236 500 188 l 316 377 b 423 414 488 471 488 558 l 488 560 b 488 644 418 712 327 712 b 225 712 152 643 152 553 l 152 551 b 152 493 177 450 230 391 b 116 349 49 280 49 186 l 49 184 b 49 70 141 -10 264 -10 b 358 -10 435 34 501 111 z m 285 409 b 223 475 204 509 204 553 l 204 555 b 204 618 254 668 325 668 b 388 668 436 620 436 558 l 436 556 b 436 490 385 441 285 409 z m 265 35 b 169 35 101 101 101 186 l 101 188 b 101 256 150 321 261 359 l 468 145 b 410 77 343 35 265 35 z"},"_":{"x_min":0,"x_max":600,"ha":600,"o":"m -2 -160 l 602 -160 l 602 -116 l -2 -116 z"},"v":{"x_min":0,"x_max":582,"ha":582,"o":"m 270 -4 l 312 -4 l 541 510 l 486 510 l 291 55 l 98 510 l 41 510 z"},"O":{"x_min":0,"x_max":850,"ha":850,"o":"m 424 -12 b 636 -12 777 159 777 350 l 777 352 b 777 543 638 712 426 712 b 214 712 73 541 73 350 l 73 348 b 73 157 212 -12 424 -12 z m 426 35 b 253 35 127 177 127 350 l 127 352 b 127 525 251 665 424 665 b 597 665 723 523 723 350 l 723 348 b 723 175 599 35 426 35 z"},"(":{"x_min":0,"x_max":430,"ha":430,"o":"m 348 -141 l 369 -108 b 211 -11 123 120 123 287 b 123 454 211 585 369 682 l 348 715 b 172 615 71 468 71 287 b 71 106 172 -41 348 -141 z"},"C":{"x_min":0,"x_max":738,"ha":738,"o":"m 421 -12 b 545 -12 625 37 699 110 l 664 144 b 593 74 524 35 423 35 b 256 35 127 173 127 350 l 127 352 b 127 528 254 665 422 665 b 527 665 597 621 658 562 l 695 600 b 623 666 548 712 423 712 b 221 712 73 548 73 350 l 73 348 b 73 147 221 -12 421 -12 z"},"W":{"x_min":0,"x_max":1102,"ha":1102,"o":"m 304 -5 l 346 -5 l 551 603 l 756 -5 l 798 -5 l 1052 700 l 998 700 l 778 77 l 573 702 l 533 702 l 328 77 l 108 700 l 50 700 z"},"A":{"x_min":0,"x_max":790,"ha":790,"o":"m 44 0 l 98 0 l 187 196 l 600 196 l 689 0 l 746 0 l 420 705 l 370 705 z m 209 243 l 394 648 l 578 243 z"},"f":{"x_min":0,"x_max":362,"ha":362,"o":"m 123 0 l 172 0 l 172 465 l 350 465 l 350 510 l 172 510 l 172 559 b 172 646 205 688 275 688 b 301 688 322 684 351 675 l 351 721 b 328 729 306 733 275 733 b 230 733 194 719 168 693 b 139 664 123 618 123 560 l 123 510 l 49 510 l 49 465 l 123 465 z"},"Q":{"x_min":0,"x_max":850,"ha":850,"o":"m 785 19 l 685 103 b 744 169 777 257 777 350 l 777 352 b 777 543 638 712 426 712 b 214 712 73 541 73 350 l 73 348 b 73 157 212 -12 424 -12 b 513 -12 590 18 649 68 l 748 -21 z m 426 35 b 253 35 127 177 127 350 l 127 352 b 127 525 251 665 424 665 b 597 665 723 523 723 350 l 723 348 b 723 266 695 191 647 136 l 513 258 l 476 217 l 612 101 b 562 59 498 35 426 35 z"},"w":{"x_min":0,"x_max":861,"ha":861,"o":"m 236 -4 l 278 -4 l 431 433 l 583 -4 l 625 -4 l 812 510 l 759 510 l 605 62 l 451 512 l 412 512 l 258 62 l 104 510 l 49 510 z"},"-":{"x_min":0,"x_max":408,"ha":408,"o":"m 70 269 l 338 269 l 338 325 l 70 325 z"},"E":{"x_min":0,"x_max":670,"ha":670,"o":"m 104 0 l 607 0 l 607 48 l 156 48 l 156 329 l 557 329 l 557 377 l 156 377 l 156 652 l 602 652 l 602 700 l 104 700 z"},"s":{"x_min":0,"x_max":497,"ha":497,"o":"m 258 -10 b 356 -10 434 48 434 139 l 434 141 b 434 231 348 261 266 284 b 193 305 124 326 124 383 l 124 385 b 124 436 170 474 240 474 b 294 474 350 454 397 423 l 423 464 b 372 498 303 520 242 520 b 143 520 74 461 74 379 l 74 377 b 74 286 166 261 249 237 b 320 217 384 195 384 135 l 384 133 b 384 74 330 36 261 36 b 196 36 134 60 78 103 l 49 64 b 103 20 184 -10 258 -10 z"},">":{"x_min":0,"x_max":620,"ha":620,"o":"m 93 91 l 557 332 l 557 372 l 93 613 l 93 559 l 496 351 l 93 145 z"},"l":{"x_min":0,"x_max":249,"ha":249,"o":"m 100 0 l 149 0 l 149 730 l 100 730 z"},"8":{"x_min":0,"x_max":630,"ha":630,"o":"m 315 -10 b 462 -10 575 71 575 187 l 575 189 b 575 271 508 333 420 362 b 489 390 551 442 551 525 l 551 527 b 551 636 436 710 315 710 b 194 710 79 636 79 527 l 79 525 b 79 442 141 390 210 362 b 122 333 55 271 55 189 l 55 187 b 55 71 168 -10 315 -10 z m 315 381 b 216 381 133 439 133 525 l 133 527 b 133 606 213 663 315 663 b 417 663 497 606 497 527 l 497 525 b 497 439 414 381 315 381 z m 315 37 b 186 37 109 106 109 185 l 109 187 b 109 274 201 337 315 337 b 429 337 521 274 521 187 l 521 185 b 521 106 444 37 315 37 z"},"\\":{"x_min":0,"x_max":500,"ha":500,"o":"m 469 -128 l 518 -128 l 46 798 l -3 798 z"},"e":{"x_min":0,"x_max":584,"ha":584,"o":"m 308 -12 b 406 -12 467 28 519 84 l 485 114 b 443 69 389 34 310 34 b 210 34 119 108 110 235 l 533 235 b 534 243 534 246 534 255 b 534 406 443 522 300 522 b 162 522 58 404 58 256 l 58 254 b 58 95 174 -12 308 -12 z m 110 279 b 119 392 197 477 298 477 b 415 477 474 382 481 279 z"},"b":{"x_min":0,"x_max":660,"ha":660,"o":"m 352 -12 b 475 -12 600 89 600 255 l 600 257 b 600 423 475 522 352 522 b 251 522 186 463 142 396 l 142 730 l 93 730 l 93 0 l 142 0 l 142 110 b 184 46 250 -12 352 -12 z m 347 35 b 241 35 139 123 139 254 l 139 256 b 139 386 241 475 347 475 b 454 475 547 389 547 255 l 547 253 b 547 116 458 35 347 35 z"},"%":{"x_min":0,"x_max":824,"ha":824,"o":"m 208 350 b 301 350 363 435 363 529 l 363 531 b 363 623 302 708 210 708 b 117 708 55 623 55 529 l 55 527 b 55 434 116 350 208 350 z m 311 527 b 311 452 269 393 210 393 b 154 393 107 450 107 529 l 107 531 b 107 604 149 665 208 665 b 264 665 311 607 311 529 z m 393 360 l 128 0 l 182 0 l 429 337 l 696 700 l 642 700 z m 614 -8 b 707 -8 769 77 769 171 l 769 173 b 769 265 708 350 616 350 b 523 350 461 265 461 171 l 461 169 b 461 76 522 -8 614 -8 z m 616 35 b 560 35 513 92 513 171 l 513 173 b 513 246 555 307 614 307 b 670 307 717 249 717 171 l 717 169 b 717 94 675 35 616 35 z"},"m":{"x_min":0,"x_max":951,"ha":951,"o":"m 93 0 l 142 0 l 142 294 b 142 397 214 477 305 477 b 396 477 454 412 454 306 l 454 0 l 503 0 l 503 297 b 503 411 578 477 664 477 b 758 477 815 413 815 303 l 815 0 l 864 0 l 864 309 b 864 437 789 522 668 522 b 572 522 517 469 484 412 b 456 471 401 522 312 522 b 221 522 175 472 142 419 l 142 510 l 93 510 z"},"#":{"x_min":0,"x_max":700,"ha":700,"o":"m 610 234 l 481 234 l 521 470 l 650 470 l 650 517 l 529 517 l 561 700 l 513 700 l 482 517 l 275 517 l 306 700 l 258 700 l 226 517 l 89 517 l 89 470 l 218 470 l 178 234 l 49 234 l 49 187 l 170 187 l 138 0 l 186 0 l 218 187 l 425 187 l 393 0 l 441 0 l 473 187 l 610 187 z m 266 470 l 473 470 l 433 234 l 226 234 z"},",":{"x_min":0,"x_max":230,"ha":230,"o":"m 65 -107 b 125 -84 148 -51 148 11 l 148 85 l 82 85 l 82 0 l 109 0 b 112 -38 96 -60 53 -82 z"},"n":{"x_min":0,"x_max":613,"ha":613,"o":"m 93 0 l 142 0 l 142 295 b 142 401 219 477 319 477 b 422 477 481 408 481 303 l 481 0 l 530 0 l 530 312 b 530 434 455 522 326 522 b 233 522 176 475 142 415 l 142 510 l 93 510 z"},"h":{"x_min":0,"x_max":613,"ha":613,"o":"m 93 0 l 142 0 l 142 295 b 142 401 219 477 319 477 b 422 477 481 408 481 303 l 481 0 l 530 0 l 530 312 b 530 434 455 522 326 522 b 233 522 176 475 142 415 l 142 730 l 93 730 z"},"z":{"x_min":0,"x_max":554,"ha":554,"o":"m 58 0 l 499 0 l 499 44 l 131 44 l 499 482 l 499 510 l 72 510 l 72 466 l 426 466 l 58 28 z"},"B":{"x_min":0,"x_max":722,"ha":722,"o":"m 104 0 l 408 0 b 559 0 659 74 659 191 l 659 193 b 659 290 585 338 501 360 b 558 383 620 431 620 526 l 620 528 b 620 572 604 609 575 638 b 536 677 472 700 393 700 l 104 700 z m 156 377 l 156 652 l 392 652 b 504 652 567 600 567 523 l 567 521 b 567 428 492 377 387 377 z m 156 48 l 156 329 l 393 329 b 531 329 606 279 606 193 l 606 191 b 606 103 530 48 410 48 z"},"K":{"x_min":0,"x_max":715,"ha":715,"o":"m 104 0 l 156 0 l 156 178 l 330 354 l 618 0 l 686 0 l 367 391 l 673 700 l 602 700 l 156 240 l 156 700 l 104 700 z"},"R":{"x_min":0,"x_max":723,"ha":723,"o":"m 104 0 l 156 0 l 156 290 l 385 290 l 608 0 l 674 0 l 443 299 b 561 315 648 382 648 499 l 648 501 b 648 551 628 598 595 631 b 553 673 484 700 398 700 l 104 700 z m 156 337 l 156 652 l 395 652 b 522 652 596 593 596 499 l 596 497 b 596 396 509 337 392 337 z"},"T":{"x_min":0,"x_max":648,"ha":648,"o":"m 298 0 l 350 0 l 350 652 l 594 652 l 594 700 l 54 700 l 54 652 l 298 652 z"},"P":{"x_min":0,"x_max":668,"ha":668,"o":"m 104 0 l 156 0 l 156 261 l 345 261 b 491 261 618 337 618 484 l 618 486 b 618 621 512 700 358 700 l 104 700 z m 156 309 l 156 652 l 354 652 b 480 652 566 594 566 483 l 566 481 b 566 377 478 309 348 309 z"},"|":{"x_min":0,"x_max":286,"ha":286,"o":"m 121 -128 l 165 -128 l 165 798 l 121 798 z"},"t":{"x_min":0,"x_max":400,"ha":400,"o":"m 263 -9 b 295 -9 320 -3 346 9 l 346 55 b 317 42 296 37 271 37 b 212 37 169 63 169 136 l 169 465 l 348 465 l 348 510 l 169 510 l 169 673 l 120 673 l 120 510 l 46 510 l 46 465 l 120 465 l 120 131 b 120 34 184 -9 263 -9 z"},"M":{"x_min":0,"x_max":868,"ha":868,"o":"m 104 0 l 154 0 l 154 608 l 431 205 l 435 205 l 712 608 l 712 0 l 764 0 l 764 700 l 715 700 l 434 286 l 153 700 l 104 700 z"},"g":{"x_min":0,"x_max":660,"ha":660,"o":"m 317 -162 b 392 -162 458 -138 502 -94 b 543 -53 567 5 567 79 l 567 510 l 518 510 l 518 408 b 476 468 407 522 305 522 b 182 522 60 427 60 280 l 60 278 b 60 132 182 38 305 38 b 406 38 474 93 518 156 l 518 82 b 518 -49 435 -116 318 -116 b 243 -116 173 -91 112 -44 l 83 -84 b 153 -136 232 -162 317 -162 z m 310 85 b 205 85 113 165 113 280 l 113 282 b 113 401 203 475 310 475 b 416 475 521 399 521 281 l 521 279 b 521 163 416 85 310 85 z"},"j":{"x_min":0,"x_max":249,"ha":249,"o":"m 94 643 l 155 643 l 155 710 l 94 710 z m 40 -163 b 106 -163 149 -125 149 -45 l 149 510 l 100 510 l 100 -48 b 100 -96 75 -119 39 -119 b 28 -119 11 -118 -1 -116 l -1 -159 b 14 -162 26 -163 40 -163 z"},"i":{"x_min":0,"x_max":249,"ha":249,"o":"m 94 643 l 155 643 l 155 710 l 94 710 z m 100 0 l 149 0 l 149 510 l 100 510 z"},"y":{"x_min":0,"x_max":588,"ha":588,"o":"m 155 -163 b 228 -163 280 -125 325 -18 l 546 510 l 492 510 l 308 54 l 96 510 l 39 510 l 284 3 b 246 -86 211 -117 158 -117 b 120 -117 98 -111 71 -98 l 54 -141 b 88 -156 116 -163 155 -163 z"},"@":{"x_min":0,"x_max":980,"ha":980,"o":"m 499 -162 b 603 -162 687 -134 764 -87 l 749 -62 b 672 -107 599 -130 499 -130 b 258 -130 87 50 87 274 b 87 497 260 680 491 680 b 721 680 893 499 893 316 b 893 171 819 109 749 109 b 692 109 659 140 659 197 b 659 209 662 234 668 269 l 705 480 l 657 486 l 643 411 b 620 455 575 500 494 500 b 382 500 261 394 261 251 b 261 145 341 73 438 73 b 517 73 568 115 609 166 b 626 109 675 73 745 73 b 830 73 927 145 927 316 b 927 527 736 712 491 712 b 246 712 53 513 53 274 b 53 35 243 -162 499 -162 z m 446 120 b 368 120 313 170 313 255 b 313 367 403 452 494 452 b 570 452 626 392 626 313 b 626 215 540 120 446 120 z"},".":{"x_min":0,"x_max":230,"ha":230,"o":"m 82 0 l 148 0 l 148 85 l 82 85 z"},"p":{"x_min":0,"x_max":660,"ha":660,"o":"m 93 -160 l 142 -160 l 142 110 b 184 46 250 -12 352 -12 b 475 -12 600 89 600 255 l 600 257 b 600 423 475 522 352 522 b 251 522 186 463 142 396 l 142 510 l 93 510 z m 347 35 b 241 35 139 123 139 254 l 139 256 b 139 386 241 475 347 475 b 454 475 547 389 547 255 l 547 253 b 547 116 458 35 347 35 z"},"X":{"x_min":0,"x_max":722,"ha":722,"o":"m 51 0 l 112 0 l 360 323 l 609 0 l 671 0 l 392 357 l 661 700 l 600 700 l 362 391 l 123 700 l 61 700 l 329 357 z"},"*":{"x_min":0,"x_max":430,"ha":430,"o":"m 194 406 l 236 406 l 227 533 l 333 461 l 355 498 l 237 554 l 355 610 l 333 647 l 227 575 l 236 702 l 194 702 l 203 575 l 97 647 l 75 610 l 193 554 l 75 498 l 97 461 l 203 533 z"},"Y":{"x_min":0,"x_max":716,"ha":716,"o":"m 332 0 l 384 0 l 384 278 l 684 700 l 622 700 l 359 324 l 97 700 l 32 700 l 332 277 z"},"c":{"x_min":0,"x_max":571,"ha":571,"o":"m 318 -12 b 412 -12 474 30 526 89 l 492 119 b 449 71 393 34 321 34 b 204 34 111 132 111 255 l 111 257 b 111 379 201 476 317 476 b 393 476 443 437 487 392 l 522 428 b 474 478 414 522 318 522 b 172 522 58 398 58 255 l 58 253 b 58 110 171 -12 318 -12 z"},"!":{"x_min":0,"x_max":252,"ha":252,"o":"m 112 183 l 140 183 l 155 630 l 155 700 l 97 700 l 97 630 z m 93 0 l 159 0 l 159 85 l 93 85 z"},"/":{"x_min":0,"x_max":500,"ha":500,"o":"m -18 -128 l 31 -128 l 503 798 l 454 798 z"},"[":{"x_min":0,"x_max":430,"ha":430,"o":"m 98 -130 l 371 -130 l 371 -92 l 144 -92 l 144 662 l 371 662 l 371 700 l 98 700 z"},"6":{"x_min":0,"x_max":642,"ha":642,"o":"m 331 -12 b 469 -12 576 86 576 218 l 576 220 b 576 345 462 432 335 432 b 221 432 156 370 116 302 b 111 516 203 665 345 665 b 411 665 464 639 518 591 l 551 631 b 490 681 429 712 349 712 b 175 712 64 544 64 333 l 64 331 b 64 186 95 116 153 58 b 195 16 259 -12 331 -12 z m 335 35 b 222 35 137 111 137 211 l 137 213 b 137 299 217 386 332 386 b 443 386 522 314 522 218 l 522 216 b 522 117 448 35 335 35 z"},"r":{"x_min":0,"x_max":400,"ha":400,"o":"m 93 0 l 142 0 l 142 209 b 142 375 245 464 363 464 l 368 464 l 368 518 b 267 522 182 456 142 365 l 142 510 l 93 510 z"},"2":{"x_min":0,"x_max":590,"ha":590,"o":"m 48 0 l 526 0 l 526 50 l 130 50 l 344 244 b 467 356 519 420 519 516 l 519 518 b 519 627 430 710 311 710 b 188 710 123 653 62 560 l 101 534 b 159 618 217 664 306 664 b 390 664 464 605 464 514 b 464 440 424 380 309 275 l 48 39 z"},"{":{"x_min":0,"x_max":480,"ha":480,"o":"m 416 -141 l 423 -109 b 270 -70 254 -33 254 68 l 254 143 b 254 232 217 265 150 287 b 213 306 254 342 254 431 l 254 506 b 254 607 270 644 423 683 l 416 715 b 237 681 205 616 205 512 l 205 433 b 205 355 179 306 85 306 l 59 306 l 59 268 l 85 268 b 179 268 205 219 205 141 l 205 62 b 205 -42 237 -107 416 -141 z"},"9":{"x_min":0,"x_max":642,"ha":642,"o":"m 293 -12 b 456 -12 578 146 578 366 l 578 368 b 578 508 544 587 490 641 b 448 683 387 712 312 712 b 166 712 66 606 66 477 l 66 475 b 66 355 167 261 308 261 b 418 261 486 324 526 396 b 534 186 435 35 294 35 b 230 35 174 62 115 115 l 82 75 b 140 26 206 -12 293 -12 z m 310 307 b 199 307 120 379 120 477 l 120 479 b 120 576 191 665 306 665 b 422 665 505 586 505 487 l 505 485 b 505 397 429 307 310 307 z"}," ":{"x_min":0,"x_max":300,"ha":300,"o":""},"I":{"x_min":0,"x_max":274,"ha":274,"o":"m 111 0 l 163 0 l 163 700 l 111 700 z"},"H":{"x_min":0,"x_max":760,"ha":760,"o":"m 104 0 l 156 0 l 156 328 l 604 328 l 604 0 l 656 0 l 656 700 l 604 700 l 604 376 l 156 376 l 156 700 l 104 700 z"},"4":{"x_min":0,"x_max":664,"ha":664,"o":"m 445 0 l 495 0 l 495 171 l 609 171 l 609 216 l 495 216 l 495 705 l 448 705 l 48 210 l 66 171 l 445 171 z m 111 216 l 445 630 l 445 216 z"},"~":{"x_min":0,"x_max":460,"ha":460,"o":"m 116 242 b 131 280 142 292 166 292 b 200 292 256 251 294 251 b 334 251 359 272 378 344 l 344 353 b 329 315 318 303 294 303 b 260 303 204 344 166 344 b 126 344 101 323 82 251 z"},"D":{"x_min":0,"x_max":782,"ha":782,"o":"m 104 0 l 337 0 b 557 0 709 153 709 350 l 709 352 b 709 549 557 700 337 700 l 104 700 z m 156 48 l 156 652 l 337 652 b 532 652 655 516 655 350 l 655 348 b 655 181 532 48 337 48 z"},"^":{"x_min":0,"x_max":500,"ha":500,"o":"m 70 493 l 121 493 l 249 660 l 377 493 l 430 493 l 272 703 l 228 703 z"},"0":{"x_min":0,"x_max":710,"ha":710,"o":"m 354 -12 b 532 -12 645 157 645 350 l 645 352 b 645 545 534 712 356 712 b 178 712 65 543 65 350 l 65 348 b 65 155 176 -12 354 -12 z m 356 35 b 211 35 119 188 119 350 l 119 352 b 119 515 209 665 354 665 b 499 665 591 513 591 350 l 591 348 b 591 186 501 35 356 35 z"},"F":{"x_min":0,"x_max":656,"ha":656,"o":"m 104 0 l 156 0 l 156 317 l 552 317 l 552 365 l 156 365 l 156 652 l 597 652 l 597 700 l 104 700 z"},"`":{"x_min":0,"x_max":500,"ha":500,"o":"m 264 595 l 306 595 l 218 728 l 157 698 z"},"k":{"x_min":0,"x_max":560,"ha":560,"o":"m 93 0 l 142 0 l 142 124 l 266 249 l 468 0 l 530 0 l 300 284 l 523 510 l 458 510 l 142 183 l 142 730 l 93 730 z"},"u":{"x_min":0,"x_max":613,"ha":613,"o":"m 287 -12 b 380 -12 437 35 471 95 l 471 0 l 520 0 l 520 510 l 471 510 l 471 215 b 471 109 394 33 294 33 b 191 33 132 102 132 207 l 132 510 l 83 510 l 83 198 b 83 76 158 -12 287 -12 z"},"]":{"x_min":0,"x_max":430,"ha":430,"o":"m 59 -130 l 332 -130 l 332 700 l 59 700 l 59 662 l 286 662 l 286 -92 l 59 -92 z"},"U":{"x_min":0,"x_max":760,"ha":760,"o":"m 380 -11 b 550 -11 667 96 667 297 l 667 700 l 615 700 l 615 291 b 615 122 524 36 382 36 b 234 36 145 131 145 296 l 145 700 l 93 700 l 93 291 b 93 95 212 -11 380 -11 z"},"o":{"x_min":0,"x_max":640,"ha":640,"o":"m 319 -12 b 471 -12 582 112 582 255 l 582 257 b 582 400 472 522 321 522 b 169 522 58 398 58 255 l 58 253 b 58 110 168 -12 319 -12 z m 321 34 b 203 34 111 132 111 255 l 111 257 b 111 377 198 476 319 476 b 437 476 529 378 529 255 l 529 253 b 529 133 442 34 321 34 z"},"N":{"x_min":0,"x_max":790,"ha":790,"o":"m 104 0 l 154 0 l 154 622 l 647 0 l 686 0 l 686 700 l 636 700 l 636 91 l 153 700 l 104 700 z"},"+":{"x_min":0,"x_max":620,"ha":620,"o":"m 285 113 l 335 113 l 335 328 l 552 328 l 552 376 l 335 376 l 335 591 l 285 591 l 285 376 l 68 376 l 68 328 l 285 328 z"},"G":{"x_min":0,"x_max":784,"ha":784,"o":"m 425 -12 b 539 -12 637 37 700 93 l 700 363 l 416 363 l 416 315 l 650 315 l 650 114 b 599 71 516 34 427 34 b 240 34 127 169 127 350 l 127 352 b 127 521 246 665 416 665 b 522 665 586 629 641 581 l 675 620 b 605 678 533 712 419 712 b 210 712 73 539 73 350 l 73 348 b 73 151 204 -12 425 -12 z"},"q":{"x_min":0,"x_max":660,"ha":660,"o":"m 518 -160 l 567 -160 l 567 510 l 518 510 l 518 400 b 476 464 410 522 308 522 b 185 522 60 421 60 255 l 60 253 b 60 87 185 -12 308 -12 b 409 -12 474 47 518 114 z m 313 35 b 206 35 113 121 113 255 l 113 257 b 113 394 202 475 313 475 b 419 475 521 387 521 256 l 521 254 b 521 124 419 35 313 35 z"},"d":{"x_min":0,"x_max":660,"ha":660,"o":"m 308 -12 b 409 -12 474 47 518 114 l 518 0 l 567 0 l 567 730 l 518 730 l 518 400 b 476 464 410 522 308 522 b 185 522 60 421 60 255 l 60 253 b 60 87 185 -12 308 -12 z m 313 35 b 206 35 113 121 113 255 l 113 257 b 113 394 202 475 313 475 b 419 475 521 387 521 256 l 521 254 b 521 124 419 35 313 35 z"},"1":{"x_min":0,"x_max":335,"ha":335,"o":"m 179 0 l 230 0 l 230 705 l 190 705 l 30 646 l 44 605 l 179 651 z"},"5":{"x_min":0,"x_max":605,"ha":605,"o":"m 302 -12 b 443 -12 546 81 546 213 l 546 215 b 546 340 441 426 306 426 b 241 426 196 410 151 388 l 168 650 l 515 650 l 515 700 l 122 700 l 102 361 l 142 335 b 186 359 235 379 300 379 b 413 379 492 310 492 213 l 492 211 b 492 113 415 35 304 35 b 230 35 157 75 94 138 l 57 101 b 118 39 207 -12 302 -12 z"}}}
